<svg xmlns="http://www.w3.org/2000/svg" viewBox="0 0 503.467 503.467">
  <path fill="#f2edda" d="M465.067 123.733v341.333c0 18.773-15.36 34.133-34.133 34.133h-358.4c-18.773 0-34.133-15.36-34.133-34.133V38.4c0-18.773 15.36-34.133 34.133-34.133H345.6V89.6c0 18.773 15.36 34.133 34.133 34.133h85.334z"/>
  <path fill="#ffd0a1" d="M465.067 123.733h-85.333c-18.773 0-34.133-15.36-34.133-34.133V4.267l119.466 119.466z"/>
  <path fill="#ff7474" d="M174.933 413.867c18.773 0 34.133-15.36 34.133-34.133 0-18.773-15.36-34.133-34.133-34.133S140.8 360.96 140.8 379.733c0 18.774 15.36 34.134 34.133 34.134zm136.534-34.134c18.773 0 34.133-15.36 34.133-34.133s-15.36-34.133-34.133-34.133c-18.773 0-34.133 15.36-34.133 34.133s15.359 34.133 34.133 34.133z"/>
  <path fill="#51565f" d="M430.933 503.467h-358.4c-21.333 0-38.4-17.067-38.4-38.4V38.4C34.133 17.067 51.2 0 72.533 0H345.6c.853 0 2.56.853 3.413.853l85.333 85.333c1.707 1.707 1.707 4.267 0 5.973-1.707 1.707-4.267 1.707-5.973 0l-84.48-84.48H72.533c-16.213 0-29.867 13.653-29.867 29.867v426.667c0 16.213 13.653 29.867 29.867 29.867h358.4c16.213 0 29.867-13.653 29.867-29.867V127.147h-81.067c-21.333 0-38.4-17.067-38.4-38.4V46.08c0-2.56 1.707-4.267 4.267-4.267s4.267 1.707 4.267 4.267v42.667c0 16.213 13.653 29.867 29.867 29.867h85.333c2.56 0 4.267 1.707 4.267 4.267v341.333c-.001 22.186-17.067 39.253-38.401 39.253zm-256-85.334c-21.333 0-38.4-17.067-38.4-38.4s17.067-38.4 38.4-38.4c2.56 0 4.267 1.707 4.267 4.267 0 2.56-1.707 4.267-4.267 4.267-16.213 0-29.867 13.653-29.867 29.867 0 16.213 13.653 29.867 29.867 29.867s29.867-13.653 29.867-29.867v-153.6c0-1.707 1.707-3.413 3.413-4.267l136.533-34.133c.853 0 2.56 0 3.413.853.853.853 1.707 1.707 1.707 3.413v153.6c0 21.333-17.067 38.4-38.4 38.4s-38.4-17.067-38.4-38.4 17.067-38.4 38.4-38.4c2.56 0 4.267 1.707 4.267 4.267 0 2.56-1.707 4.267-4.267 4.267-16.213 0-29.867 13.653-29.867 29.867 0 16.213 13.653 29.867 29.867 29.867s29.867-13.653 29.867-29.867V197.12l-128 32.427v150.187c0 21.333-17.066 38.399-38.4 38.399z"/>
</svg>
