<svg xmlns="http://www.w3.org/2000/svg" viewBox="0 0 303.188 303.188">
  <path fill="#e4e4e4" d="M219.821 0H32.842v303.188h237.504V50.525z"/>
  <path fill="#007934" d="M227.64 25.263H32.842V0h186.979zM201.981 130.748c5.465-5.466 5.467-14.329 0-19.795l-48.938 48.937-39.039-39.039 39.039-39.039 14.57 14.57-22.366 22.368 9.897 9.897 27.315-27.316c2.735-2.733 2.735-7.165 0-9.898l-24.468-24.469c-2.733-2.733-7.163-2.733-9.897 0l-48.938 48.937c-2.732 2.733-2.732 7.165 0 9.898l48.938 48.937c2.734 2.733 7.164 2.733 9.897 0l43.99-43.988z"/>
  <g fill="#a4a9ad">
    <path d="M83.145 274.527c-6.191 0-11-1.646-14.424-4.939-3.424-3.292-5.136-7.98-5.136-14.062 0-6.279 1.586-11.097 4.759-14.456 3.172-3.358 7.701-5.038 13.586-5.038 5.602 0 9.928 1.46 12.979 4.381 3.052 2.921 4.578 7.127 4.578 12.618v5.71H76.549c.087 2.079.848 3.708 2.28 4.89 1.434 1.182 3.386 1.772 5.858 1.772 2.253 0 4.327-.213 6.22-.64 1.892-.427 3.942-1.154 6.152-2.182v9.222c-2.013 1.028-4.092 1.739-6.234 2.133-2.144.395-4.705.591-7.68.591zm-.754-29.765c-1.51 0-2.773.476-3.79 1.428-1.018.952-1.614 2.445-1.789 4.479h11.027c-.045-1.794-.554-3.227-1.527-4.299s-2.281-1.608-3.921-1.608zM142.315 241.152c0 5.361-1.581 9.501-4.742 12.421-3.162 2.921-7.652 4.381-13.472 4.381h-3.644v15.917h-12.963v-47.979H124.1c6.06 0 10.61 1.324 13.651 3.971 3.043 2.647 4.564 6.41 4.564 11.289zm-21.857 6.235h2.363c1.947 0 3.495-.546 4.645-1.641 1.148-1.094 1.723-2.604 1.723-4.529 0-3.238-1.795-4.857-5.383-4.857h-3.348v11.027zM190.754 225.892v28.88c0 6.279-1.778 11.141-5.333 14.587-3.556 3.446-8.681 5.169-15.375 5.169-6.542 0-11.568-1.674-15.08-5.021-3.511-3.347-5.267-8.16-5.267-14.44v-29.175h13.028v28.158c0 3.392.635 5.852 1.903 7.384 1.269 1.532 3.14 2.297 5.612 2.297 2.646 0 4.566-.76 5.759-2.281 1.192-1.521 1.789-4.009 1.789-7.466v-28.092h12.964zM200.829 225.892h16.736c6.52 0 11.36.968 14.522 2.905 3.161 1.936 4.742 4.95 4.742 9.041 0 2.691-.689 4.988-2.068 6.892-1.378 1.903-3.194 3.129-5.447 3.676v.328c2.975.788 5.13 2.1 6.465 3.938 1.334 1.838 2.002 4.223 2.002 7.154 0 4.354-1.636 7.783-4.906 10.288-3.271 2.506-7.729 3.758-13.373 3.758h-18.673v-47.98zm12.963 18.41h3.905c1.859 0 3.298-.382 4.315-1.148 1.018-.766 1.525-1.903 1.525-3.413 0-2.691-2.034-4.037-6.104-4.037h-3.643v8.598h.002zm0 9.485v10.075h4.562c4.047 0 6.071-1.707 6.071-5.12 0-1.597-.542-2.822-1.625-3.676-1.083-.853-2.652-1.28-4.709-1.28l-4.299.001z"/>
  </g>
  <path fill="#d1d3d3" d="M219.821 50.525h50.525L219.821 0z"/>
</svg>
