<svg xmlns="http://www.w3.org/2000/svg" viewBox="-34 0 303.188 303.188">
  <g fill="none" fill-rule="nonzero">
    <path fill="#E8E8E8" d="M187.821 0H.842v303.188h237.504V50.525z"/>
    <g fill="#D1D3D3">
      <path d="M60.817 166.37h49.543v12.865H60.817zM60.817 141.729H168.36v12.865H60.817zM60.817 117.087h117.551v12.865H60.817zM60.817 92.445h82.209v12.865H60.817zM60.817 67.804h117.551v12.865H60.817z"/>
    </g>
    <path fill="#A4A9AD" d="M195.64 25.263H.842V0h186.979z"/>
    <path fill="#D1D3D3" d="M187.821 50.525h50.525L187.821 0z"/>
    <g fill="#A4A9AD">
      <path d="M73.766 273.979H61V226h28.355v10.403H73.766v9.156H88.14v10.403H73.766zM185.43 273.832H160v-47.979h25.43v10.4029925h-13.857v7.5476863h12.832v10.4029925h-12.832v9.0576717h13.857zM123 273.979V226h12.963v37.511h18.477v10.469H123zM99 226h13v48H99z"/>
    </g>
  </g>
</svg>
