<svg xmlns="http://www.w3.org/2000/svg" viewBox="0 0 303.188 303.188">
  <path fill="#e8e8e8" d="M219.821 0H32.842v303.188h237.504V50.525z"/>
  <path fill="#38a3ff" d="M90.902 61.704h119.89v119.89H90.902z"/>
  <path fill="#007934" d="M184.795 122.678l-23.812 40.18-38.74-65.374-31.341 52.888v31.221h119.89v-15.044z"/>
  <path fill="#38a3ff" d="M227.64 25.263H32.842V0h186.979z"/>
  <g fill="#a4a9ad">
    <path d="M94.319 288.935c-2.363 0-4.605-.23-6.728-.689v-10.075c.7.131 1.444.279 2.231.443.788.164 1.641.246 2.56.246 2.144 0 3.675-.646 4.594-1.936.919-1.292 1.378-3.5 1.378-6.629v-44.402h13.028v43.287c0 6.498-1.422 11.415-4.266 14.751-2.842 3.335-7.109 5.004-12.797 5.004zM156.575 241.152c0 5.361-1.582 9.501-4.742 12.421-3.162 2.921-7.652 4.381-13.472 4.381h-3.643v15.917h-12.963v-47.979h16.606c6.06 0 10.611 1.324 13.652 3.971 3.041 2.647 4.562 6.41 4.562 11.289zm-21.857 6.235h2.363c1.948 0 3.495-.546 4.643-1.641 1.15-1.094 1.725-2.604 1.725-4.529 0-3.238-1.795-4.857-5.383-4.857h-3.348v11.027zM183.484 245.779h20.708v25.86c-5.623 1.925-11.804 2.888-18.542 2.888-7.395 0-13.11-2.144-17.147-6.432-4.036-4.288-6.055-10.403-6.055-18.345 0-7.745 2.21-13.772 6.629-18.083 4.419-4.309 10.611-6.465 18.575-6.465 3.019 0 5.868.285 8.549.853 2.68.569 5.016 1.292 7.007 2.166l-4.102 10.174c-3.457-1.707-7.253-2.56-11.388-2.56-3.785 0-6.711 1.231-8.778 3.692-2.068 2.461-3.102 5.979-3.102 10.551 0 4.485.936 7.904 2.806 10.256 1.871 2.352 4.566 3.528 8.09 3.528 1.925 0 3.697-.186 5.316-.558v-7.515h-8.565l-.001-10.01z"/>
  </g>
  <path fill="#d1d3d3" d="M219.821 50.525h50.525L219.821 0z"/>
</svg>
