<svg xmlns="http://www.w3.org/2000/svg" viewBox="0 0 303.188 303.188">
  <path fill="#e8e8e8" d="M219.821 0H32.842v303.188h237.504V50.525z"/>
  <g fill="#a4a9ad">
    <path d="M103.524 273.871l-9.813-34.557h-.295c.459 5.886.689 10.459.689 13.718v20.839H82.62v-47.979h17.262l10.01 34.065h.262l9.813-34.065h17.295v47.979H125.35v-21.036c0-1.094.016-2.308.049-3.643.033-1.334.181-4.605.443-9.813h-.296l-9.681 34.491h-12.341v.001zM182.418 241.152c0 5.361-1.581 9.501-4.742 12.421-3.162 2.921-7.652 4.381-13.472 4.381h-3.643v15.917h-12.963v-47.979h16.605c6.06 0 10.61 1.324 13.652 3.971 3.041 2.647 4.563 6.41 4.563 11.289zm-21.856 6.235h2.362c1.947 0 3.495-.546 4.643-1.641 1.149-1.094 1.724-2.604 1.724-4.529 0-3.238-1.795-4.857-5.383-4.857h-3.347l.001 11.027zM220.092 236.295c0 2.976-.908 5.53-2.724 7.663s-4.441 3.681-7.876 4.643v.197c8.008 1.007 12.011 4.792 12.011 11.355 0 4.463-1.767 7.975-5.3 10.535s-8.439 3.839-14.719 3.839c-2.582 0-4.972-.186-7.171-.558-2.198-.372-4.577-1.05-7.138-2.035V261.17c2.101 1.072 4.239 1.865 6.416 2.379 2.177.515 4.185.771 6.023.771 2.844 0 4.917-.399 6.219-1.198s1.952-2.051 1.952-3.758c0-1.313-.339-2.324-1.017-3.036-.679-.71-1.773-1.247-3.282-1.608-1.51-.361-3.479-.542-5.907-.542h-2.953v-9.747h3.019c6.586 0 9.879-1.684 9.879-5.054 0-1.268-.487-2.209-1.461-2.822-.974-.612-2.28-.919-3.922-.919-3.064 0-6.235 1.029-9.517 3.085l-5.382-8.664c2.537-1.75 5.136-2.997 7.794-3.741s5.704-1.116 9.14-1.116c4.966 0 8.86.984 11.683 2.954 2.822 1.972 4.233 4.684 4.233 8.141z"/>
  </g>
  <path fill="#38a3ff" d="M227.64 25.263H32.842V0h186.979z"/>
  <path fill="#d1d3d3" d="M219.821 50.525h50.525L219.821 0z"/>
  <circle cx="150.304" cy="122.143" r="59.401" fill="#38a3ff"/>
  <path fill="#333e48" d="M130.903 91.176v47.938c-1.681-.199-3.551-.154-5.529.195-7.212 1.271-13.057 5.968-13.057 10.49s5.845 7.157 13.057 5.886c7.211-1.271 13.056-5.968 13.056-10.49v-38.703l32.749-5.775v31.294c-1.68-.199-3.549-.153-5.529.196-7.213 1.271-13.057 5.968-13.057 10.49s5.844 7.157 13.057 5.886c7.21-1.271 13.056-5.968 13.056-10.49V82.748l-47.803 8.428z"/>
</svg>
