<svg xmlns="http://www.w3.org/2000/svg" viewBox="0 0 303.188 303.188">
  <path fill="#e8e8e8" d="M219.821 0H32.842v303.188h237.504V50.525z"/>
  <path fill="#333e48" d="M106.092 69.553h89.511V178.26h-89.511z"/>
  <path fill="#38a3ff" d="M111.454 126.587h78.788V172.9h-78.788zM111.454 74.914h78.788v46.312h-78.788z"/>
  <path fill="#a4a9ad" d="M92.203 69.553h13.89V178.26h-13.89z"/>
  <path fill="#fff" d="M95.436 167.872h7.872v5.778h-7.872zM95.436 154.485h7.872v5.777h-7.872zM95.436 141.098h7.872v5.778h-7.872zM95.436 127.711h7.872v5.778h-7.872zM95.436 114.323h7.872v5.778h-7.872zM95.436 100.936h7.872v5.778h-7.872zM95.436 87.549h7.872v5.777h-7.872zM95.436 74.161h7.872v5.778h-7.872z"/>
  <path fill="#a4a9ad" d="M195.604 69.553h13.889V178.26h-13.889z"/>
  <path fill="#fff" d="M198.387 167.872h7.872v5.778h-7.872zM198.387 154.485h7.872v5.777h-7.872zM198.387 141.098h7.872v5.778h-7.872zM198.387 127.711h7.872v5.778h-7.872zM198.387 114.323h7.872v5.778h-7.872zM198.387 100.936h7.872v5.778h-7.872zM198.387 87.549h7.872v5.777h-7.872zM198.387 74.161h7.872v5.778h-7.872z"/>
  <path fill="#333e48" d="M227.64 25.263H32.842V0h186.979z"/>
  <g>
    <g fill="#a4a9ad">
      <path d="M87.508 273.871l-8.76-30.85h-.264c.41 5.254.615 9.336.615 12.246v18.604H68.846v-42.832h15.41l8.936 30.41h.234l8.76-30.41h15.439v42.832H106.99v-18.779c0-.977.015-2.061.044-3.252s.161-4.111.396-8.76h-.264l-8.643 30.791H87.508zM157.938 244.662c0 4.785-1.411 8.481-4.233 11.089-2.822 2.607-6.831 3.911-12.026 3.911h-3.252v14.209h-11.572v-42.832h14.824c5.41 0 9.473 1.182 12.188 3.545 2.713 2.363 4.071 5.723 4.071 10.078zm-19.512 5.567h2.109c1.738 0 3.12-.488 4.145-1.465 1.025-.977 1.538-2.324 1.538-4.043 0-2.891-1.602-4.336-4.805-4.336h-2.988v9.844h.001zM190.193 273.871h-25.43v-42.832h25.43v9.287h-13.857v6.738h12.832v9.287h-12.832v8.086h13.857v9.434zM214.891 248.793h18.486v23.086c-5.02 1.719-10.537 2.578-16.553 2.578-6.602 0-11.704-1.914-15.308-5.742s-5.405-9.287-5.405-16.377c0-6.914 1.973-12.295 5.918-16.143 3.945-3.848 9.473-5.771 16.582-5.771 2.695 0 5.239.254 7.632.762s4.478 1.152 6.255 1.934l-3.662 9.082c-3.086-1.523-6.475-2.285-10.166-2.285-3.379 0-5.991 1.099-7.837 3.296s-2.768 5.337-2.768 9.419c0 4.004.835 7.057 2.505 9.155 1.67 2.1 4.077 3.149 7.222 3.149 1.719 0 3.301-.166 4.746-.498v-6.709h-7.646v-8.936h-.001z"/>
    </g>
  </g>
  <path fill="#d1d3d3" d="M219.821 50.525h50.525L219.821 0z"/>
</svg>
