<svg xmlns="http://www.w3.org/2000/svg" viewBox="0 0 303.188 303.188">
  <path fill="#e8e8e8" d="M219.821 0H32.842v303.188h237.504V50.525z"/>
  <path fill="#ff671b" d="M90.902 61.704h119.89v119.89H90.902z"/>
  <path fill="#fff" d="M101.303 72.105h99.089v99.087h-99.089z"/>
  <path fill="#ff671b" d="M115.616 92.182h70.463v58.933h-70.463z"/>
  <path fill="#fff" d="M120.918 98.303h59.861v7.613h-59.861zM135.872 112.472c-8.259 0-14.955 6.696-14.955 14.954 0 8.259 6.695 14.955 14.955 14.955 8.258 0 14.954-6.696 14.954-14.955h-14.954v-14.954zM157.902 113.564h22.876v4.434h-22.876zM157.902 122.993h22.876v4.433h-22.876zM157.902 132.422h22.876v4.432h-22.876z"/>
  <path fill="#ff671b" d="M227.64 25.263H32.842V0h186.979z"/>
  <g fill="#a4a9ad">
    <path d="M128.532 241.152c0 5.361-1.581 9.501-4.742 12.421-3.162 2.921-7.652 4.381-13.472 4.381h-3.643v15.917H93.712v-47.979h16.606c6.06 0 10.611 1.324 13.652 3.971 3.041 2.647 4.562 6.41 4.562 11.289zm-21.857 6.235h2.363c1.947 0 3.495-.546 4.644-1.641 1.148-1.094 1.723-2.604 1.723-4.529 0-3.238-1.794-4.857-5.382-4.857h-3.348v11.027zM170.998 241.152c0 5.361-1.581 9.501-4.742 12.421-3.162 2.921-7.652 4.381-13.472 4.381h-3.643v15.917h-12.963v-47.979h16.606c6.06 0 10.61 1.324 13.652 3.971 3.041 2.647 4.562 6.41 4.562 11.289zm-21.856 6.235h2.362c1.947 0 3.495-.546 4.644-1.641 1.149-1.094 1.724-2.604 1.724-4.529 0-3.238-1.795-4.857-5.383-4.857h-3.347v11.027zM199.812 273.871h-12.963v-37.379h-11.716v-10.6h36.361v10.6h-11.683v37.379h.001z"/>
  </g>
  <path fill="#d1d3d3" d="M219.821 50.525h50.525L219.821 0z"/>
</svg>
