<svg xmlns="http://www.w3.org/2000/svg" viewBox="0 0 303.188 303.188">
  <path fill="#e8e8e8" d="M219.821 0H32.842v303.188h237.504V50.525z"/>
  <g fill="#d1d3d3">
    <path d="M92.817 166.37h49.543v12.865H92.817zM92.817 141.729H200.36v12.865H92.817zM92.817 117.087h117.551v12.865H92.817zM92.817 92.445h82.209v12.865H92.817zM92.817 67.804h117.551v12.865H92.817z"/>
  </g>
  <g fill="#a4a9ad">
    <path d="M113.189 273.871h-12.963v-37.379H88.511v-10.6h36.361v10.6h-11.683v37.379zM174.952 273.871h-14.998l-9.352-14.998-9.256 14.998h-14.669l15.917-24.547-14.965-23.433h14.373l8.664 14.834 8.336-14.834h14.801l-15.195 24.449 16.344 23.531zM201.502 273.871h-12.963v-37.379h-11.716v-10.6h36.361v10.6h-11.683v37.379h.001z"/>
  </g>
  <path fill="#a4a9ad" d="M227.64 25.263H32.842V0h186.979z"/>
  <path fill="#d1d3d3" d="M219.821 50.525h50.525L219.821 0z"/>
</svg>
