<svg xmlns="http://www.w3.org/2000/svg" viewBox="0 0 303.188 303.188">
  <path fill="#e8e8e8" d="M219.821 0H32.842v303.188h237.504V50.525z"/>
  <path fill="#007934" d="M90.902 61.704h119.89v119.89H90.902z"/>
  <path fill="#fff" d="M101.303 72.105h99.088v99.088h-99.088z"/>
  <path fill="#007934" d="M192.62 137.423h-30.579l9.032 11.28-9.032 11.279h30.579l-9.032-11.279z"/>
  <path fill="#007934" d="M183.875 97.886h-29.266l-6.487 8.101-6.487-8.101h-29.266l21.12 26.376-21.12 26.376h71.506l-21.12-26.376z"/>
  <path fill="#fff" d="M124.911 101.616h-4.235l36.268 45.292h4.234z"/>
  <path fill="#007934" d="M227.64 25.263H32.842V0h186.979z"/>
  <g fill="#a4a9ad">
    <path d="M135.998 273.871H121l-9.353-14.997-9.254 14.997h-14.67l15.917-24.547-14.965-23.432h14.374l8.664 14.834 8.336-14.834h14.801l-15.194 24.449 16.342 23.53zM141.38 273.871v-47.979h12.963v37.511h18.477v10.469h-31.44v-.001zM211.872 259.3c0 2.976-.755 5.617-2.265 7.925-1.509 2.309-3.687 4.102-6.53 5.382-2.845 1.28-6.181 1.92-10.01 1.92-3.194 0-5.874-.225-8.04-.673s-4.42-1.23-6.761-2.346v-11.552c2.473 1.269 5.043 2.259 7.713 2.97 2.669.711 5.119 1.067 7.351 1.067 1.925 0 3.336-.333 4.233-1.001.897-.667 1.346-1.526 1.346-2.576 0-.656-.181-1.231-.541-1.723-.361-.492-.941-.99-1.739-1.493-.8-.503-2.927-1.531-6.384-3.085-3.129-1.422-5.475-2.8-7.039-4.135-1.564-1.334-2.724-2.866-3.479-4.595-.755-1.728-1.132-3.774-1.132-6.137 0-4.419 1.607-7.865 4.823-10.337 3.217-2.472 7.636-3.708 13.259-3.708 4.966 0 10.031 1.148 15.194 3.446l-3.971 10.009c-4.485-2.056-8.357-3.085-11.617-3.085-1.686 0-2.91.295-3.676.886-.767.591-1.148 1.324-1.148 2.199 0 .941.486 1.784 1.46 2.527.974.744 3.615 2.101 7.926 4.07 4.135 1.859 7.007 3.856 8.614 5.989 1.609 2.132 2.413 4.819 2.413 8.056z"/>
  </g>
  <path fill="#d1d3d3" d="M219.821 50.525h50.525L219.821 0z"/>
</svg>
