<svg xmlns="http://www.w3.org/2000/svg" viewBox="0 0 303.188 303.188">
  <path fill="#e4e4e4" d="M219.821 0H32.842v303.188h237.504V50.525z"/>
  <path fill="#333e48" d="M144.182 12.631h14.824v132.962h-14.824z"/>
  <path fill="#a4a9ad" d="M151.594 134.594c-8.247 0-14.933 20.253-14.933 28.5s6.686 14.933 14.933 14.933 14.933-6.686 14.933-14.933-6.686-28.5-14.933-28.5zm0 35.411c-3.817 0-6.912-3.094-6.912-6.912s3.094-6.912 6.912-6.912c3.817 0 6.912 3.094 6.912 6.912s-3.095 6.912-6.912 6.912zM227.64 25.263H32.842V0h186.979z"/>
  <g fill="#a4a9ad">
    <path d="M136.769 273.871H99.39v-8.007l20.773-29.503H99.882v-10.469h36.362v7.975l-20.773 29.536h21.298v10.468zM143.628 273.871v-47.979h13.028v47.979h-13.028zM201.847 241.152c0 5.361-1.581 9.501-4.742 12.421-3.162 2.921-7.652 4.381-13.472 4.381h-3.643v15.917h-12.963v-47.979h16.605c6.06 0 10.61 1.324 13.652 3.971 3.041 2.647 4.563 6.41 4.563 11.289zm-21.857 6.235h2.362c1.947 0 3.495-.546 4.643-1.641 1.149-1.094 1.724-2.604 1.724-4.529 0-3.238-1.795-4.857-5.383-4.857h-3.347l.001 11.027z"/>
  </g>
  <path fill="#d1d3d3" d="M219.821 50.525h50.525L219.821 0z"/>
</svg>
