<svg viewBox="0 0 63 71" fill="none" xmlns="http://www.w3.org/2000/svg">
  <path d="M59.4275 29.3005V23.0515C59.4275 21.5524 58.8433 20.1427 57.7826 19.0818L40.3523 1.64941C39.2887 0.585719 37.8743 0 36.369 0H10.1483C6.2004 0 2.98853 3.20636 2.98853 7.14753V19.5837C2.98853 20.1546 3.45121 20.6171 4.02191 20.6171C4.59261 20.6171 5.05528 20.1546 5.05528 19.5837V7.14753C5.05528 4.34597 7.34001 2.06676 10.1483 2.06676H36.369C36.6644 2.06676 36.9577 2.10451 37.2417 2.17671V11.3998C37.2417 11.9706 37.7044 12.4332 38.2751 12.4332C38.8458 12.4332 39.3084 11.9706 39.3084 11.3998V3.5285L55.8994 20.1215H42.4169C40.703 20.1215 39.3084 18.7267 39.3084 17.0123V16.2224C39.3084 15.6515 38.8458 15.189 38.2751 15.189C37.7044 15.189 37.2417 15.6515 37.2417 16.2224V17.0123C37.2417 19.8663 39.5634 22.1883 42.4169 22.1883H57.2553C57.3249 22.4673 57.3607 22.7566 57.3607 23.0515V28.4187C56.8819 28.3067 56.3837 28.2457 55.8713 28.2457H52.1805C51.6098 28.2457 51.1471 28.7082 51.1471 29.279C51.1471 29.8499 51.6098 30.3124 52.1805 30.3124H55.8713C58.3404 30.3124 60.3493 32.3212 60.3493 34.7904V54.9068C60.3493 57.376 58.3404 59.3848 55.8713 59.3848H30.4389C29.8682 59.3848 29.4055 59.8473 29.4055 60.4182C29.4055 60.989 29.8682 61.4515 30.4389 61.4515H55.8713C56.3837 61.4515 56.8819 61.3905 57.3607 61.2785V63.3977C57.3607 66.1993 55.076 68.4785 52.2677 68.4785H10.1483C7.34001 68.4785 5.05528 66.1993 5.05528 63.3977V61.2785C5.53408 61.3905 6.03231 61.4515 6.54473 61.4515H25.6165C26.1872 61.4515 26.6498 60.989 26.6498 60.4182C26.6498 59.8473 26.1872 59.3848 25.6165 59.3848H6.54473C4.07564 59.3848 2.06676 57.376 2.06676 54.9068V34.7904C2.06676 32.3212 4.07564 30.3124 6.54473 30.3124H47.3581C47.9288 30.3124 48.3914 29.8499 48.3914 29.279C48.3914 28.7082 47.9288 28.2457 47.3581 28.2457H6.54473C6.03231 28.2457 5.53408 28.3067 5.05528 28.4187V24.4062C5.05528 23.8353 4.59261 23.3728 4.02191 23.3728C3.45121 23.3728 2.98853 23.8353 2.98853 24.4062V29.3005C1.19169 30.4684 0 32.4923 0 34.7904V54.9068C0 57.2049 1.19169 59.2288 2.98853 60.3968V63.3977C2.98853 67.3389 6.2004 70.5453 10.1483 70.5453H52.2677C56.2156 70.5453 59.4275 67.3389 59.4275 63.3977V60.3968C61.2243 59.2288 62.416 57.2049 62.416 54.9068V34.7904C62.416 32.4923 61.2243 30.4684 59.4275 29.3005Z" fill="black"/>
  <path d="M3.65057 50L4.67472 47.1165H8.79119L9.81534 50H11.108L7.36932 39.8182H6.09659L2.35795 50H3.65057ZM5.0625 46.0227L6.69318 41.429H6.77273L8.40341 46.0227H5.0625ZM12.2739 50H13.5068V46.0227H15.7341C15.8236 46.0227 15.9081 46.0227 15.9926 46.0178L18.1404 50H19.5722L17.2703 45.794C18.5679 45.3516 19.1745 44.2926 19.1745 42.9403C19.1745 41.1406 18.1006 39.8182 15.7142 39.8182H12.2739V50ZM13.5068 44.9091V40.9119H15.6745C17.325 40.9119 17.9614 41.7173 17.9614 42.9403C17.9614 44.1634 17.325 44.9091 15.6943 44.9091H13.5068ZM29.0022 43C28.6243 40.9119 26.9539 39.679 24.9056 39.679C22.3004 39.679 20.4112 41.6875 20.4112 44.9091C20.4112 48.1307 22.3004 50.1392 24.9056 50.1392C26.9539 50.1392 28.6243 48.9062 29.0022 46.8182H27.7692C27.4709 48.2301 26.2578 48.9858 24.9056 48.9858C23.0561 48.9858 21.6044 47.554 21.6044 44.9091C21.6044 42.2642 23.0561 40.8324 24.9056 40.8324C26.2578 40.8324 27.4709 41.5881 27.7692 43H29.0022ZM30.5745 50H31.8075V45.446H37.2364V50H38.4694V39.8182H37.2364V44.3523H31.8075V39.8182H30.5745V50ZM41.7508 39.8182H40.5178V50H41.7508V39.8182ZM44.2205 39.8182H42.9279L46.6665 50H47.9392L51.6779 39.8182H50.3853L47.3625 48.3892H47.2432L44.2205 39.8182ZM52.8438 50H59.0682V48.9062H54.0768V45.446H58.6705V44.3523H54.0768V40.9119H58.9887V39.8182H52.8438V50Z" fill="black"/>
</svg>
