<svg viewBox="0 0 63 71" fill="none" xmlns="http://www.w3.org/2000/svg">
  <path d="M59.4275 29.3005V23.0515C59.4275 21.5524 58.8433 20.1427 57.7826 19.0818L40.3523 1.64941C39.2887 0.585719 37.8743 0 36.369 0H10.1483C6.2004 0 2.98853 3.20636 2.98853 7.14753V19.5837C2.98853 20.1546 3.45121 20.6171 4.02191 20.6171C4.59261 20.6171 5.05528 20.1546 5.05528 19.5837V7.14753C5.05528 4.34597 7.34001 2.06676 10.1483 2.06676H36.369C36.6644 2.06676 36.9577 2.10451 37.2417 2.17671V11.3998C37.2417 11.9706 37.7044 12.4332 38.2751 12.4332C38.8458 12.4332 39.3084 11.9706 39.3084 11.3998V3.5285L55.8994 20.1215H42.4169C40.703 20.1215 39.3084 18.7267 39.3084 17.0123V16.2224C39.3084 15.6515 38.8458 15.189 38.2751 15.189C37.7044 15.189 37.2417 15.6515 37.2417 16.2224V17.0123C37.2417 19.8663 39.5634 22.1883 42.4169 22.1883H57.2553C57.3249 22.4673 57.3607 22.7566 57.3607 23.0515V28.4187C56.8819 28.3067 56.3837 28.2457 55.8713 28.2457H52.1805C51.6098 28.2457 51.1471 28.7082 51.1471 29.279C51.1471 29.8499 51.6098 30.3124 52.1805 30.3124H55.8713C58.3404 30.3124 60.3493 32.3212 60.3493 34.7904V54.9068C60.3493 57.376 58.3404 59.3848 55.8713 59.3848H30.4389C29.8682 59.3848 29.4055 59.8473 29.4055 60.4182C29.4055 60.989 29.8682 61.4515 30.4389 61.4515H55.8713C56.3837 61.4515 56.8819 61.3905 57.3607 61.2785V63.3977C57.3607 66.1993 55.076 68.4785 52.2677 68.4785H10.1483C7.34001 68.4785 5.05528 66.1993 5.05528 63.3977V61.2785C5.53408 61.3905 6.03231 61.4515 6.54473 61.4515H25.6165C26.1872 61.4515 26.6498 60.989 26.6498 60.4182C26.6498 59.8473 26.1872 59.3848 25.6165 59.3848H6.54473C4.07564 59.3848 2.06676 57.376 2.06676 54.9068V34.7904C2.06676 32.3212 4.07564 30.3124 6.54473 30.3124H47.3581C47.9288 30.3124 48.3914 29.8499 48.3914 29.279C48.3914 28.7082 47.9288 28.2457 47.3581 28.2457H6.54473C6.03231 28.2457 5.53408 28.3067 5.05528 28.4187V24.4062C5.05528 23.8353 4.59261 23.3728 4.02191 23.3728C3.45121 23.3728 2.98853 23.8353 2.98853 24.4062V29.3005C1.19169 30.4684 0 32.4923 0 34.7904V54.9068C0 57.2049 1.19169 59.2288 2.98853 60.3968V63.3977C2.98853 67.3389 6.2004 70.5453 10.1483 70.5453H52.2677C56.2156 70.5453 59.4275 67.3389 59.4275 63.3977V60.3968C61.2243 59.2288 62.416 57.2049 62.416 54.9068V34.7904C62.416 32.4923 61.2243 30.4684 59.4275 29.3005Z" fill="black"/>
  <path d="M17.1705 38.9091H15.5852V52H17.1705V38.9091ZM19.8089 38.9091V52H21.2919V42.054H21.4197L25.5106 52H26.9424L31.0333 42.054H31.1612V52H32.6441V38.9091H30.7521L26.3032 49.7756H26.1498L21.7009 38.9091H19.8089ZM44.2314 43H45.8678C45.382 40.4688 43.2598 38.7301 40.4985 38.7301C37.1427 38.7301 34.7712 41.3125 34.7712 45.4545C34.7712 49.5966 37.1235 52.179 40.6008 52.179C43.7201 52.179 45.9445 50.1016 45.9445 46.8608V45.4545H40.9587V46.8608H44.4104C44.3657 49.2131 42.8188 50.696 40.6008 50.696C38.1718 50.696 36.3053 48.8551 36.3053 45.4545C36.3053 42.054 38.1718 40.2131 40.4985 40.2131C42.3905 40.2131 43.6753 41.2805 44.2314 43Z" fill="black"/>
</svg>
