<svg viewBox="0 0 63 71" fill="none" xmlns="http://www.w3.org/2000/svg">
  <path d="M59.4275 29.3005V23.0515C59.4275 21.5524 58.8433 20.1427 57.7826 19.0818L40.3523 1.64941C39.2887 0.585719 37.8743 0 36.369 0H10.1483C6.2004 0 2.98853 3.20636 2.98853 7.14753V19.5837C2.98853 20.1546 3.45121 20.6171 4.02191 20.6171C4.59261 20.6171 5.05528 20.1546 5.05528 19.5837V7.14753C5.05528 4.34597 7.34001 2.06676 10.1483 2.06676H36.369C36.6644 2.06676 36.9577 2.10451 37.2417 2.17671V11.3998C37.2417 11.9706 37.7044 12.4332 38.2751 12.4332C38.8458 12.4332 39.3084 11.9706 39.3084 11.3998V3.5285L55.8994 20.1215H42.4169C40.703 20.1215 39.3084 18.7267 39.3084 17.0123V16.2224C39.3084 15.6515 38.8458 15.189 38.2751 15.189C37.7044 15.189 37.2417 15.6515 37.2417 16.2224V17.0123C37.2417 19.8663 39.5634 22.1883 42.4169 22.1883H57.2553C57.3249 22.4673 57.3607 22.7566 57.3607 23.0515V28.4187C56.8819 28.3067 56.3837 28.2457 55.8713 28.2457H52.1805C51.6098 28.2457 51.1471 28.7082 51.1471 29.279C51.1471 29.8499 51.6098 30.3124 52.1805 30.3124H55.8713C58.3404 30.3124 60.3493 32.3212 60.3493 34.7904V54.9068C60.3493 57.376 58.3404 59.3848 55.8713 59.3848H30.4389C29.8682 59.3848 29.4055 59.8473 29.4055 60.4182C29.4055 60.989 29.8682 61.4515 30.4389 61.4515H55.8713C56.3837 61.4515 56.8819 61.3905 57.3607 61.2785V63.3977C57.3607 66.1993 55.076 68.4785 52.2677 68.4785H10.1483C7.34001 68.4785 5.05528 66.1993 5.05528 63.3977V61.2785C5.53408 61.3905 6.03231 61.4515 6.54473 61.4515H25.6165C26.1872 61.4515 26.6498 60.989 26.6498 60.4182C26.6498 59.8473 26.1872 59.3848 25.6165 59.3848H6.54473C4.07564 59.3848 2.06676 57.376 2.06676 54.9068V34.7904C2.06676 32.3212 4.07564 30.3124 6.54473 30.3124H47.3581C47.9288 30.3124 48.3914 29.8499 48.3914 29.279C48.3914 28.7082 47.9288 28.2457 47.3581 28.2457H6.54473C6.03231 28.2457 5.53408 28.3067 5.05528 28.4187V24.4062C5.05528 23.8353 4.59261 23.3728 4.02191 23.3728C3.45121 23.3728 2.98853 23.8353 2.98853 24.4062V29.3005C1.19169 30.4684 0 32.4923 0 34.7904V54.9068C0 57.2049 1.19169 59.2288 2.98853 60.3968V63.3977C2.98853 67.3389 6.2004 70.5453 10.1483 70.5453H52.2677C56.2156 70.5453 59.4275 67.3389 59.4275 63.3977V60.3968C61.2243 59.2288 62.416 57.2049 62.416 54.9068V34.7904C62.416 32.4923 61.2243 30.4684 59.4275 29.3005Z" fill="black"/>
  <path d="M3.88068 48H4.76136V45.3438H6.35227C8.04616 45.3438 8.80966 44.3139 8.80966 43.0284C8.80966 41.7429 8.04616 40.7273 6.33807 40.7273H3.88068V48ZM4.76136 44.5625V41.5085H6.30966C7.49219 41.5085 7.94318 42.1548 7.94318 43.0284C7.94318 43.902 7.49219 44.5625 6.32386 44.5625H4.76136ZM9.8147 48H10.6528V44.5483C10.6528 43.8097 11.2352 43.2699 12.0306 43.2699C12.2543 43.2699 12.4852 43.3125 12.542 43.3267V42.4744C12.4461 42.4673 12.2259 42.4602 12.1016 42.4602C11.4482 42.4602 10.88 42.8295 10.6812 43.3693H10.6244V42.5455H9.8147V48ZM15.3563 48.1136C16.4643 48.1136 17.2739 47.5597 17.5296 46.7358L16.72 46.5085C16.5069 47.0767 16.0133 47.3608 15.3563 47.3608C14.3727 47.3608 13.6944 46.7251 13.6553 45.5568H17.6148V45.2017C17.6148 43.1705 16.4075 42.4744 15.2711 42.4744C13.7938 42.4744 12.8137 43.6392 12.8137 45.3153C12.8137 46.9915 13.7796 48.1136 15.3563 48.1136ZM13.6553 44.8324C13.7121 43.9837 14.3123 43.2273 15.2711 43.2273C16.1802 43.2273 16.7626 43.9091 16.7626 44.8324H13.6553ZM22.4533 43.767C22.1906 42.9929 21.6011 42.4744 20.5215 42.4744C19.371 42.4744 18.5187 43.1278 18.5187 44.0511C18.5187 44.804 18.9661 45.3082 19.9675 45.5426L20.8766 45.7557C21.4271 45.8835 21.6863 46.1463 21.6863 46.5227C21.6863 46.9915 21.1891 47.375 20.4079 47.375C19.7225 47.375 19.2928 47.0803 19.1437 46.4943L18.3482 46.6932C18.5435 47.62 19.307 48.1136 20.4221 48.1136C21.6898 48.1136 22.5528 47.4212 22.5528 46.4801C22.5528 45.7202 22.0769 45.2408 21.1039 45.0028L20.2942 44.804C19.6479 44.6442 19.3567 44.4276 19.3567 44.0085C19.3567 43.5398 19.8539 43.1989 20.5215 43.1989C21.2531 43.1989 21.5549 43.6037 21.7005 43.9801L22.4533 43.767ZM25.8012 48.1136C26.9092 48.1136 27.7189 47.5597 27.9745 46.7358L27.1649 46.5085C26.9518 47.0767 26.4582 47.3608 25.8012 47.3608C24.8176 47.3608 24.1393 46.7251 24.1002 45.5568H28.0598V45.2017C28.0598 43.1705 26.8524 42.4744 25.716 42.4744C24.2387 42.4744 23.2586 43.6392 23.2586 45.3153C23.2586 46.9915 24.2245 48.1136 25.8012 48.1136ZM24.1002 44.8324C24.1571 43.9837 24.7572 43.2273 25.716 43.2273C26.6251 43.2273 27.2075 43.9091 27.2075 44.8324H24.1002ZM29.8727 44.7188C29.8727 43.767 30.4622 43.2273 31.2647 43.2273C32.0424 43.2273 32.5147 43.7351 32.5147 44.5909V48H33.3528V44.5341C33.3528 43.142 32.6106 42.4744 31.5062 42.4744C30.6824 42.4744 30.171 42.8438 29.9153 43.3977H29.8443V42.5455H29.0346V48H29.8727V44.7188ZM36.9564 42.5455H35.7916V41.2386H34.9536V42.5455H34.1297V43.2557H34.9536V46.6648C34.9536 47.6165 35.7206 48.071 36.4308 48.071C36.7433 48.071 36.9422 48.0142 37.0558 47.9716L36.8854 47.2188C36.8143 47.233 36.7007 47.2614 36.5161 47.2614C36.1467 47.2614 35.7916 47.1477 35.7916 46.4375V43.2557H36.9564V42.5455ZM39.5222 48.1278C40.4739 48.1278 40.971 47.6165 41.1415 47.2614H41.1841V48H42.0222V44.4062C42.0222 42.6733 40.7011 42.4744 40.0051 42.4744C39.1813 42.4744 38.2438 42.7585 37.8176 43.7528L38.6131 44.0369C38.7977 43.6392 39.2345 43.2131 40.0335 43.2131C40.8041 43.2131 41.1841 43.6214 41.1841 44.321V44.3494C41.1841 44.7543 40.7722 44.7188 39.7778 44.8466C38.7658 44.978 37.6614 45.2017 37.6614 46.4517C37.6614 47.517 38.4852 48.1278 39.5222 48.1278ZM39.65 47.375C38.9824 47.375 38.4994 47.0767 38.4994 46.4943C38.4994 45.8551 39.0818 45.6562 39.7352 45.571C40.0903 45.5284 41.042 45.429 41.1841 45.2585V46.0256C41.1841 46.7074 40.6443 47.375 39.65 47.375ZM45.624 42.5455H44.4592V41.2386H43.6211V42.5455H42.7973V43.2557H43.6211V46.6648C43.6211 47.6165 44.3882 48.071 45.0984 48.071C45.4109 48.071 45.6098 48.0142 45.7234 47.9716L45.5529 47.2188C45.4819 47.233 45.3683 47.2614 45.1836 47.2614C44.8143 47.2614 44.4592 47.1477 44.4592 46.4375V43.2557H45.624V42.5455ZM46.5846 48H47.4227V42.5455H46.5846V48ZM47.0108 41.6364C47.3375 41.6364 47.6074 41.3807 47.6074 41.0682C47.6074 40.7557 47.3375 40.5 47.0108 40.5C46.6841 40.5 46.4142 40.7557 46.4142 41.0682C46.4142 41.3807 46.6841 41.6364 47.0108 41.6364ZM50.8736 48.1136C52.3509 48.1136 53.3452 46.9915 53.3452 45.3011C53.3452 43.5966 52.3509 42.4744 50.8736 42.4744C49.3963 42.4744 48.402 43.5966 48.402 45.3011C48.402 46.9915 49.3963 48.1136 50.8736 48.1136ZM50.8736 47.3608C49.7514 47.3608 49.2401 46.3949 49.2401 45.3011C49.2401 44.2074 49.7514 43.2273 50.8736 43.2273C51.9957 43.2273 52.5071 44.2074 52.5071 45.3011C52.5071 46.3949 51.9957 47.3608 50.8736 47.3608ZM55.1625 44.7188C55.1625 43.767 55.752 43.2273 56.5546 43.2273C57.3323 43.2273 57.8046 43.7351 57.8046 44.5909V48H58.6427V44.5341C58.6427 43.142 57.9005 42.4744 56.7961 42.4744C55.9722 42.4744 55.4608 42.8438 55.2051 43.3977H55.1341V42.5455H54.3245V48H55.1625V44.7188Z" fill="black"/>
</svg>
