<svg viewBox="0 0 63 71" fill="none" xmlns="http://www.w3.org/2000/svg">
  <path d="M59.4275 29.3005V23.0515C59.4275 21.5524 58.8433 20.1427 57.7826 19.0818L40.3523 1.64941C39.2887 0.585719 37.8743 0 36.369 0H10.1483C6.2004 0 2.98853 3.20636 2.98853 7.14753V19.5837C2.98853 20.1546 3.45121 20.6171 4.02191 20.6171C4.59261 20.6171 5.05528 20.1546 5.05528 19.5837V7.14753C5.05528 4.34597 7.34001 2.06676 10.1483 2.06676H36.369C36.6644 2.06676 36.9577 2.10451 37.2417 2.17671V11.3998C37.2417 11.9706 37.7044 12.4332 38.2751 12.4332C38.8458 12.4332 39.3084 11.9706 39.3084 11.3998V3.5285L55.8994 20.1215H42.4169C40.703 20.1215 39.3084 18.7267 39.3084 17.0123V16.2224C39.3084 15.6515 38.8458 15.189 38.2751 15.189C37.7044 15.189 37.2417 15.6515 37.2417 16.2224V17.0123C37.2417 19.8663 39.5634 22.1883 42.4169 22.1883H57.2553C57.3249 22.4673 57.3607 22.7566 57.3607 23.0515V28.4187C56.8819 28.3067 56.3837 28.2457 55.8713 28.2457H52.1805C51.6098 28.2457 51.1471 28.7082 51.1471 29.279C51.1471 29.8499 51.6098 30.3124 52.1805 30.3124H55.8713C58.3404 30.3124 60.3493 32.3212 60.3493 34.7904V54.9068C60.3493 57.376 58.3404 59.3848 55.8713 59.3848H30.4389C29.8682 59.3848 29.4055 59.8473 29.4055 60.4182C29.4055 60.989 29.8682 61.4515 30.4389 61.4515H55.8713C56.3837 61.4515 56.8819 61.3905 57.3607 61.2785V63.3977C57.3607 66.1993 55.076 68.4785 52.2677 68.4785H10.1483C7.34001 68.4785 5.05528 66.1993 5.05528 63.3977V61.2785C5.53408 61.3905 6.03231 61.4515 6.54473 61.4515H25.6165C26.1872 61.4515 26.6498 60.989 26.6498 60.4182C26.6498 59.8473 26.1872 59.3848 25.6165 59.3848H6.54473C4.07564 59.3848 2.06676 57.376 2.06676 54.9068V34.7904C2.06676 32.3212 4.07564 30.3124 6.54473 30.3124H47.3581C47.9288 30.3124 48.3914 29.8499 48.3914 29.279C48.3914 28.7082 47.9288 28.2457 47.3581 28.2457H6.54473C6.03231 28.2457 5.53408 28.3067 5.05528 28.4187V24.4062C5.05528 23.8353 4.59261 23.3728 4.02191 23.3728C3.45121 23.3728 2.98853 23.8353 2.98853 24.4062V29.3005C1.19169 30.4684 0 32.4923 0 34.7904V54.9068C0 57.2049 1.19169 59.2288 2.98853 60.3968V63.3977C2.98853 67.3389 6.2004 70.5453 10.1483 70.5453H52.2677C56.2156 70.5453 59.4275 67.3389 59.4275 63.3977V60.3968C61.2243 59.2288 62.416 57.2049 62.416 54.9068V34.7904C62.416 32.4923 61.2243 30.4684 59.4275 29.3005Z" fill="black"/>
  <path d="M12.8011 42.3636H13.9943C13.9396 40.8274 12.5227 39.679 10.554 39.679C8.60511 39.679 7.07386 40.8125 7.07386 42.5227C7.07386 43.8949 8.06818 44.7102 9.65909 45.1676L10.9119 45.5256C11.9858 45.8239 12.9403 46.2017 12.9403 47.2159C12.9403 48.3295 11.8665 49.0653 10.4545 49.0653C9.24148 49.0653 8.16761 48.5284 8.06818 47.375H6.79545C6.91477 49.0455 8.26705 50.179 10.4545 50.179C12.8011 50.179 14.1335 48.8864 14.1335 47.2358C14.1335 45.3267 12.3239 44.7102 11.2699 44.4318L10.2358 44.1534C9.48011 43.9545 8.26705 43.5568 8.26705 42.4631C8.26705 41.4886 9.16193 40.7727 10.5142 40.7727C11.7472 40.7727 12.6818 41.3594 12.8011 42.3636ZM19.9566 45.0881H15.5021V46.1818H19.9566V45.0881ZM27.3283 42.3636H28.5215C28.4668 40.8274 27.0499 39.679 25.0812 39.679C23.1323 39.679 21.6011 40.8125 21.6011 42.5227C21.6011 43.8949 22.5954 44.7102 24.1863 45.1676L25.4391 45.5256C26.513 45.8239 27.4675 46.2017 27.4675 47.2159C27.4675 48.3295 26.3937 49.0653 24.9817 49.0653C23.7687 49.0653 22.6948 48.5284 22.5954 47.375H21.3226C21.442 49.0455 22.7942 50.179 24.9817 50.179C27.3283 50.179 28.6607 48.8864 28.6607 47.2358C28.6607 45.3267 26.8511 44.7102 25.7971 44.4318L24.763 44.1534C24.0073 43.9545 22.7942 43.5568 22.7942 42.4631C22.7942 41.4886 23.6891 40.7727 25.0414 40.7727C26.2743 40.7727 27.209 41.3594 27.3283 42.3636ZM31.2821 45.4062C31.2821 44.0739 32.1322 43.3182 33.2906 43.3182C34.3943 43.3182 35.0605 44.0142 35.0605 45.2273V50H36.2338V45.1477C36.2338 43.1839 35.1898 42.2642 33.6287 42.2642C32.4255 42.2642 31.7395 42.7663 31.3815 43.5568H31.2821V39.8182H30.1088V50H31.2821V45.4062ZM41.162 50.1591C42.7131 50.1591 43.8466 49.3835 44.2046 48.2301L43.0711 47.9119C42.7728 48.7074 42.0817 49.1051 41.162 49.1051C39.7848 49.1051 38.8353 48.2152 38.7806 46.5795H44.3239V46.0824C44.3239 43.2386 42.6336 42.2642 41.0427 42.2642C38.9745 42.2642 37.6023 43.8949 37.6023 46.2415C37.6023 48.5881 38.9546 50.1591 41.162 50.1591ZM38.7806 45.5653C38.8601 44.3771 39.7003 43.3182 41.0427 43.3182C42.3154 43.3182 43.1307 44.2727 43.1307 45.5653H38.7806ZM48.8904 50.1591C50.4415 50.1591 51.5751 49.3835 51.933 48.2301L50.7995 47.9119C50.5012 48.7074 49.8102 49.1051 48.8904 49.1051C47.5133 49.1051 46.5637 48.2152 46.509 46.5795H52.0523V46.0824C52.0523 43.2386 50.362 42.2642 48.7711 42.2642C46.7029 42.2642 45.3308 43.8949 45.3308 46.2415C45.3308 48.5881 46.683 50.1591 48.8904 50.1591ZM46.509 45.5653C46.5886 44.3771 47.4288 43.3182 48.7711 43.3182C50.0438 43.3182 50.8592 44.2727 50.8592 45.5653H46.509ZM56.7382 42.3636H55.1075V40.5341H53.9342V42.3636H52.7808V43.358H53.9342V48.1307C53.9342 49.4631 55.0081 50.0994 56.0024 50.0994C56.4399 50.0994 56.7183 50.0199 56.8774 49.9602L56.6387 48.9062C56.5393 48.9261 56.3802 48.9659 56.1217 48.9659C55.6046 48.9659 55.1075 48.8068 55.1075 47.8125V43.358H56.7382V42.3636Z" fill="black"/>
</svg>
