<svg width="24" height="24" fill="none" xmlns="http://www.w3.org/2000/svg">
  <path fill-rule="evenodd" clip-rule="evenodd" d="M12.2471 3.90706l9.3353 3.64003h-.004c.1265.04913.2347.13507.31.2463.0753.11124.1142.24244.1115.376-.0028.13357-.0471.26311-.1269.37125-.0799.10814-.1915.18971-.3199.23376l-9.3354 3.2353c-.071.0251-.1459.0379-.2214.038-.0754-.0003-.1503-.0131-.2213-.038L3.99861 9.31275v3.96875c0 .2606-.10538.5105-.29295.6947-.18758.1842-.44199.2877-.70726.2877-.26528 0-.51969-.1035-.70726-.2877-.18758-.1842-.29296-.4341-.29296-.6947V8.48362c.0063-.0668.02017-.1327.04134-.19648-.00387-.01684-.01164-.03256-.01942-.04828-.01096-.02216-.02192-.04431-.02192-.0696-.00273-.13354.03617-.26471.1115-.37591.07532-.11121.18347-.19714.30993-.24626L11.755 3.90706c.158-.06163.334-.06163.4921 0zm-.2468 9.57104l5.1091-1.7748h-.0013c.1006-.0348.2082-.0454.3138-.0309.1056.0146.2061.0537.2931.1143.087.0606.158.1407.2069.2338.049.093.0745.1963.0744.301v3.2746c-.0002.1354-.0431.2675-.1229.378-.0798.1105-.1925.194-.3226.2389L13.55 17.6015c-1.005.3458-2.0997.3458-3.1047 0L6.44445 16.213c-.13008-.0449-.24277-.1284-.32255-.2389-.07977-.1105-.1227-.2426-.12288-.378v-3.2746c-.00007-.1047.02543-.208.07436-.301.04894-.0931.11989-.1732.20689-.2338.087-.0606.18753-.0997.29313-.1143.10561-.0145.21323-.0039.31382.0309l5.11308 1.7748z" fill="#5CDB95"/>
</svg>
