<svg xmlns="http://www.w3.org/2000/svg" viewBox="0 0 23 23">
  <path d="M12.7063 7.04768c-2.71281.00351-4.75122 2.55167-4.27819 5.10052.01557.084.08819.1454.17361.1478.63541.0173 1.21208-.0059 1.83948-.1449.0959-.0212.1517-.1199.1251-.2145-.101-.3608-.0888-.829.0366-1.2075l-.0002-.0001c.1622-.465.4642-.86243.9116-1.13298 0 .00011.0001.00022.0002.00031.5622-.35728 1.4853-.27662 2.2606-.28304l-.0015-.00321 2.8637.01579c1.1412.0063 2.0602.94503 2.0423 2.08613-.0063 1.1412-.9452 2.0697-2.0863 2.0634l-1.7413-.0031c-.0805-.0001-.1538.0455-.1902.1174-.3876.7647-1.1605 1.6094-1.9109 2.0758-.021.013-.0116.0455.0131.0456l3.6917.0203c2.3583.0131 4.3181-1.9056 4.3552-4.2636.0379-2.40647-1.9003-4.38623-4.3069-4.39952l-3.7826-.02087c-.005.00005-.01.00028-.0151.00027z"/>
  <path d="M11.0456 15.3821c-.0001 0-.0002 0-.0003.0001.0017.0007.0032.0013.0049.002 1.0593-.2923 1.9257-.9873 2.5278-1.9149h-.0016l-.0004-.0012c.5262-.8367.7628-1.9625.5758-2.9989-.0161-.0892-.1039-.1714-.1938-.1823-.5654-.0689-1.1969-.0607-1.8169.1417-.0973.0318-.1533.1329-.1286.2322.0927.3726.0987.7843-.0307 1.1892h.0004c-.0812.2965-.3346.7567-.7915 1.0605l-.0002-.0002c-.5785.4309-1.55249.3688-2.37674.3679v.0004c-.62523-.0029-2.21207-.0126-2.84817-.0158-1.14116-.0063-2.06967-.9451-2.06338-2.0863.0063-1.1411.94513-2.06963 2.08629-2.06333l1.74645.00304c.07915.00014.15143-.04378.1884-.11378.40755-.77137 1.15825-1.60196 1.89639-2.07962.02057-.01332.01101-.04524-.0135-.04539l-3.63613-.02005c-2.38249-.01313-4.36247 1.9252-4.39992 4.30743-.01315 2.3824 1.92532 4.3423 4.30769 4.3555.86839-.0349 4.24252.1481 4.96772-.1382z"/>
</svg>
