<svg width="128" height="128" viewBox="0 0 128 128" fill="none" xmlns="http://www.w3.org/2000/svg">
  <path d="M0.5 8C0.5 3.85786 3.85786 0.5 8 0.5H120C124.142 0.5 127.5 3.85786 127.5 8V120C127.5 124.142 124.142 127.5 120 127.5H8C3.85786 127.5 0.5 124.142 0.5 120V8Z" fill="#F5F5F5" stroke="#E0E0E0"/>
  <path d="M54.625 81C58.6136 81 60.8636 78.5199 60.8636 74.429C60.8636 70.3636 58.6136 67.9091 54.804 67.9091H50.5852V81H54.625ZM52.1705 79.5938V69.3153H54.7017C57.7699 69.3153 59.3295 71.2585 59.3295 74.429C59.3295 77.625 57.7699 79.5938 54.5227 79.5938H52.1705ZM64.568 67.9091H62.9827V81H64.568V67.9091ZM77.7405 72C77.2547 69.3153 75.107 67.7301 72.4734 67.7301C69.124 67.7301 66.695 70.3125 66.695 74.4545C66.695 78.5966 69.124 81.179 72.4734 81.179C75.107 81.179 77.2547 79.5938 77.7405 76.9091H76.1553C75.7717 78.7244 74.2121 79.696 72.4734 79.696C70.0956 79.696 68.2291 77.8551 68.2291 74.4545C68.2291 71.054 70.0956 69.2131 72.4734 69.2131C74.2121 69.2131 75.7717 70.1847 76.1553 72H77.7405Z" fill="black"/>
  <path d="M92.4275 59.3005V53.0515C92.4275 51.5524 91.8433 50.1427 90.7826 49.0818L73.3523 31.6494C72.2887 30.5857 70.8743 30 69.369 30H43.1483C39.2004 30 35.9885 33.2064 35.9885 37.1475V49.5837C35.9885 50.1546 36.4512 50.6171 37.0219 50.6171C37.5926 50.6171 38.0553 50.1546 38.0553 49.5837V37.1475C38.0553 34.346 40.34 32.0668 43.1483 32.0668H69.369C69.6644 32.0668 69.9577 32.1045 70.2417 32.1767V41.3998C70.2417 41.9706 70.7044 42.4332 71.2751 42.4332C71.8458 42.4332 72.3084 41.9706 72.3084 41.3998V33.5285L88.8994 50.1215H75.4169C73.703 50.1215 72.3084 48.7267 72.3084 47.0123V46.2224C72.3084 45.6515 71.8458 45.189 71.2751 45.189C70.7044 45.189 70.2417 45.6515 70.2417 46.2224V47.0123C70.2417 49.8663 72.5634 52.1883 75.4169 52.1883H90.2553C90.3249 52.4673 90.3607 52.7566 90.3607 53.0515V58.4187C89.8819 58.3067 89.3837 58.2457 88.8713 58.2457H85.1805C84.6098 58.2457 84.1471 58.7082 84.1471 59.279C84.1471 59.8499 84.6098 60.3124 85.1805 60.3124H88.8713C91.3404 60.3124 93.3493 62.3212 93.3493 64.7904V84.9068C93.3493 87.376 91.3404 89.3848 88.8713 89.3848H63.4389C62.8682 89.3848 62.4055 89.8473 62.4055 90.4182C62.4055 90.989 62.8682 91.4515 63.4389 91.4515H88.8713C89.3837 91.4515 89.8819 91.3905 90.3607 91.2785V93.3977C90.3607 96.1993 88.076 98.4785 85.2677 98.4785H43.1483C40.34 98.4785 38.0553 96.1993 38.0553 93.3977V91.2785C38.5341 91.3905 39.0323 91.4515 39.5447 91.4515H58.6165C59.1872 91.4515 59.6498 90.989 59.6498 90.4182C59.6498 89.8473 59.1872 89.3848 58.6165 89.3848H39.5447C37.0756 89.3848 35.0668 87.376 35.0668 84.9068V64.7904C35.0668 62.3212 37.0756 60.3124 39.5447 60.3124H80.3581C80.9288 60.3124 81.3914 59.8499 81.3914 59.279C81.3914 58.7082 80.9288 58.2457 80.3581 58.2457H39.5447C39.0323 58.2457 38.5341 58.3067 38.0553 58.4187V54.4062C38.0553 53.8353 37.5926 53.3728 37.0219 53.3728C36.4512 53.3728 35.9885 53.8353 35.9885 54.4062V59.3005C34.1917 60.4684 33 62.4923 33 64.7904V84.9068C33 87.2049 34.1917 89.2288 35.9885 90.3968V93.3977C35.9885 97.3389 39.2004 100.545 43.1483 100.545H85.2677C89.2156 100.545 92.4275 97.3389 92.4275 93.3977V90.3968C94.2243 89.2288 95.416 87.2049 95.416 84.9068V64.7904C95.416 62.4923 94.2243 60.4684 92.4275 59.3005Z" fill="black"/>
</svg>
