<svg width="12" height="15" viewBox="0 0 12 15" fill="none" xmlns="http://www.w3.org/2000/svg">
<path d="M11.6948 3.66502C11.5262 3.66502 11.3894 3.80185 11.3894 3.97044V14.049H2.05661C1.33035 14.049 1.00537 13.4358 1.00537 12.8274V2.44336C1.00537 2.27477 0.86854 2.13794 0.699953 2.13794C0.531365 2.13794 0.394531 2.27477 0.394531 2.44336V12.8274C0.394531 13.889 1.0933 14.6598 2.05658 14.6598H11.6948C11.8634 14.6598 12.0002 14.523 12.0002 14.3544V3.97044C12.0002 3.80185 11.8634 3.66502 11.6948 3.66502Z" fill="black"/>
<path d="M11.911 0.521653C11.9983 0.434296 12.0246 0.302988 11.977 0.188745C11.9299 0.0745301 11.8182 0 11.6948 0H2.36198C1.3138 0 0.394531 0.856366 0.394531 1.83247V2.44329C0.394531 3.41939 1.31383 4.27576 2.362 4.27576H3.75408C3.92267 4.27576 4.0595 4.13892 4.0595 3.97034C4.0595 3.80175 3.92264 3.66494 3.75405 3.66494H2.36198C1.65221 3.66494 1.00535 3.08282 1.00535 2.44329V1.83247C1.00535 1.19294 1.65221 0.610814 2.36198 0.610814H11.1139C10.6814 1.4849 10.6814 2.79085 11.1139 3.66494H7.419C7.25041 3.66494 7.11358 3.80178 7.11358 3.97037C7.11358 4.13895 7.25041 4.27579 7.419 4.27579H11.6948C11.8181 4.27579 11.9299 4.20126 11.977 4.08764C12.0246 3.97343 11.9983 3.84209 11.911 3.75473C11.2311 3.07489 11.2311 1.2015 11.911 0.521653Z" fill="black"/>
<path d="M11.084 1.83252H2.22705C2.05846 1.83252 1.92163 1.96935 1.92163 2.13794C1.92163 2.30653 2.05846 2.44336 2.22705 2.44336H11.084C11.2526 2.44336 11.3894 2.30653 11.3894 2.13794C11.3894 1.96935 11.2526 1.83252 11.084 1.83252Z" fill="black"/>
<path d="M7.41909 1.83252C7.25051 1.83252 7.11367 1.96935 7.11307 2.13794V8.73057L5.80225 7.41975C5.68314 7.30064 5.4895 7.30064 5.37039 7.41975L4.05957 8.73057V2.13794C4.05957 1.96935 3.92274 1.83252 3.75415 1.83252C3.58556 1.83252 3.44873 1.96935 3.44873 2.13794V9.46783C3.44873 9.59121 3.52326 9.70299 3.63748 9.74943C3.75169 9.79707 3.88303 9.77082 3.97038 9.68346L5.58662 8.06722L7.20286 9.68406C7.2615 9.7421 7.3397 9.77325 7.41909 9.77325C7.45818 9.77325 7.49789 9.76592 7.53577 9.75003C7.64999 9.70299 7.72452 9.59121 7.72452 9.46783V2.13794C7.72452 1.96935 7.58768 1.83252 7.41909 1.83252Z" fill="black"/>
</svg>
