<svg xmlns="http://www.w3.org/2000/svg" fill="none" viewBox="0 0 16 16">
  <path fill="#303030" d="M12.4365 10.3544c-.4298 0-.7773.3534-.7773.7905v2.4832c0 .4364-.3482.7905-.7772.7905H2.33183c-.42907 0-.77727-.3542-.77727-.7905V3.35087c0-.4364.34823-.79054.77727-.79054h4.516c.42982 0 .77726-.35338.77726-.79054S7.27765.979248 6.84783.979248h-4.516C1.04621.979184 0 2.04329 0 3.35087V13.6281c0 1.3075 1.04621 2.3716 2.33183 2.3716h8.55007c1.2856 0 2.3318-1.0633 2.3318-2.3716V11.145c.0001-.4372-.3474-.7906-.7772-.7906z"/>
  <path fill="#303030" d="M15.1308.879833c-.5643-.573929-1.3012-.8632934-2.0435-.87909022C12.3061-.0166432 11.5203.2711 10.9296.872714L5.66737 6.22478c-.76796.78424-1.19081 1.82461-1.19081 2.92978v1.77084c0 .4372.34745.7905.77727.7905h1.7411c1.08664 0 2.10954-.43 2.88137-1.2119l5.2552-5.34495c1.1582-1.17866 1.1582-3.0997-.0007-4.279217zM8.77806 9.38544c-.47648.48303-1.11074.74946-1.78307.74946h-.96386v-.98031c0-.68384.26194-1.32893.73607-1.81275l3.469-3.52825 2.0101 2.04436-3.46824 3.52749zm5.25364-5.34339l-.6864.69808-2.01-2.04436.6863-.69805c.555-.56446 1.4566-.56287 2.0101 0 .5534.56363.5534 1.48067 0 2.04433z"/>
</svg>
