<svg width="36" height="34" viewBox="0 0 36 34" fill="none" xmlns="http://www.w3.org/2000/svg">
<path d="M1.75191 12.0282H34.2479C34.2479 12.0282 35.1559 11.2842 34.2479 10.3362L18.0039 0.776245L1.75191 10.3322C1.75191 10.3322 0.627906 11.3442 1.75191 12.0282ZM35.3079 31.9122L33.3479 30.2082C33.2399 30.1162 32.9959 30.0402 32.7959 30.0402L3.60391 30.0842C3.40791 30.0842 3.14791 30.1562 3.02791 30.2442L0.719906 31.9202C0.599906 32.0082 0.503906 32.1682 0.503906 32.2762V33.0242C0.503906 33.1322 0.663906 33.2242 0.863906 33.2242H35.1479C35.3439 33.2242 35.5079 33.1362 35.5079 33.0242V32.2802C35.4999 32.1682 35.4119 32.0042 35.3079 31.9122ZM30.1599 13.3522H33.1519V28.3482H30.1599V13.3522ZM25.2639 13.3522H28.2559V28.3482H25.2639V13.3522ZM8.20791 13.3522H11.1999V28.3482H8.20791V13.3522ZM3.31191 13.3522H6.30391V28.3482H3.31191V13.3522ZM18.0639 28.3282C18.2919 28.3282 18.5199 28.2962 18.7359 28.2322V26.4162C19.6639 26.2082 20.3719 25.8082 20.8599 25.2162C21.3439 24.6282 21.5879 23.9042 21.5879 23.0482C21.5879 22.5362 21.5239 22.1122 21.3999 21.7722C21.2759 21.4322 21.0999 21.1442 20.8759 20.9122C20.6519 20.6762 20.3759 20.4762 20.0519 20.3082C19.7279 20.1402 19.3679 19.9722 18.9719 19.8082L18.0319 19.4162C17.8759 19.3522 17.7199 19.2842 17.5639 19.2122C17.4079 19.1402 17.2679 19.0522 17.1399 18.9522C17.0159 18.8522 16.9159 18.7322 16.8439 18.5842C16.7719 18.4362 16.7359 18.2602 16.7359 18.0522C16.7359 17.8122 16.7839 17.6162 16.8759 17.4642C16.9679 17.3122 17.0879 17.1962 17.2359 17.1122C17.3839 17.0282 17.5479 16.9722 17.7279 16.9482C17.9119 16.9242 18.0919 16.9082 18.2679 16.9082C18.5599 16.9082 18.8199 16.9202 19.0519 16.9482C19.2799 16.9762 19.4879 17.0082 19.6719 17.0482C19.8559 17.0882 20.0279 17.1442 20.1879 17.2042C20.3479 17.2682 20.5079 17.3282 20.6639 17.3922C20.9359 16.8082 21.1039 16.2122 21.1639 15.6082C20.7359 15.4602 20.3279 15.3442 19.9439 15.2562C19.5559 15.1682 19.1559 15.1082 18.7359 15.0762V13.4642C18.4959 13.4002 18.2679 13.3722 18.0479 13.3722C17.8199 13.3722 17.5919 13.4042 17.3759 13.4642V15.1242C16.4359 15.2402 15.6999 15.5682 15.1679 16.1122C14.6359 16.6562 14.3679 17.3962 14.3679 18.3362C14.3679 18.7762 14.4239 19.1442 14.5319 19.4482C14.6399 19.7522 14.7999 20.0162 14.9999 20.2402C15.2039 20.4642 15.4479 20.6562 15.7279 20.8202C16.0079 20.9842 16.3239 21.1362 16.6679 21.2842L17.4999 21.6442C17.6759 21.7282 17.8599 21.8082 18.0479 21.8802C18.2359 21.9522 18.4039 22.0402 18.5559 22.1482C18.7079 22.2522 18.8319 22.3842 18.9319 22.5482C19.0319 22.7082 19.0799 22.9162 19.0799 23.1682C19.0799 23.6682 18.8999 24.0322 18.5399 24.2562C18.1799 24.4802 17.6719 24.5922 17.0119 24.5922C16.5719 24.5922 16.1599 24.5602 15.7759 24.4922C15.3879 24.4242 14.9759 24.3002 14.5399 24.1242C14.4239 24.4602 14.3239 24.7802 14.2439 25.0882C14.1599 25.3962 14.1039 25.7002 14.0719 26.0042C14.3319 26.1082 14.5839 26.1962 14.8239 26.2722C15.0639 26.3442 15.3079 26.4042 15.5519 26.4522C15.7959 26.5002 16.0559 26.5322 16.3279 26.5522C16.5999 26.5722 16.9079 26.5842 17.2519 26.5842H17.3759V28.2442C17.6039 28.2962 17.8359 28.3282 18.0639 28.3282Z" fill="#5CDB95"/>
</svg>
