<svg width="17" height="17" viewBox="0 0 17 17" fill="none" xmlns="http://www.w3.org/2000/svg">
<path d="M13.8333 5.08003H7.7L6.48 3.63003C6.43896 3.5807 6.37746 3.55303 6.31333 3.55503H1.365C0.6095 3.56053 0 4.17453 0 4.93003V13.8484C0.000916667 14.6065 0.61525 15.2208 1.37333 15.2217H13.8333C14.5914 15.2208 15.2057 14.6065 15.2067 13.8484V6.45337C15.2057 5.69528 14.5914 5.08095 13.8333 5.08003Z" fill="black" fill-opacity="0.5"/>
<path d="M15.6348 3.30342H9.49977L8.27977 1.85342C8.23873 1.80409 8.17723 1.77642 8.11311 1.77842H3.16644C2.48094 1.77955 1.90127 2.28596 1.80811 2.96509H6.31977C6.55635 2.96451 6.78098 3.06892 6.9331 3.25009L7.97477 4.48842H13.8331C14.9166 4.49026 15.7946 5.36821 15.7964 6.45176V13.4318C16.4834 13.346 16.9992 12.7624 16.9998 12.0701V4.67509C16.998 3.92088 16.3889 3.30892 15.6348 3.30342Z" fill="black" fill-opacity="0.5"/>
</svg>
