<svg xmlns="http://www.w3.org/2000/svg" fill="none" viewBox="0 0 22 22">
  <path fill="#CACCCF" d="M19.2223 17.3815c-.0744-.168-.0912-.4128-.0288-.5856.4824-1.368.9768-2.7288 1.4904-4.0872.5472-1.4424.972-2.8944.7584-4.4712-.2424-1.7904-.9768-3.3408-2.2992-4.5648-.6456-.5952-1.4016-1.0632-2.1504-1.62.0576-.1584.1512-.4056.2424-.6528.1488-.407999.0336-.727199-.3096-.854399-.3528-.1296-.648.0168-.8136.4128-.108.254399-.204.511199-.3096.775199-.9984-.2448-1.9848-.3432-2.9856-.1992-2.9832.4272-5.136 1.992-6.3 4.7832-.7128 1.716-1.3008 3.4848-1.9344 5.232-.0768.216-.1992.3432-.408.4368-1.0608.4752-2.1144.9648-3.175203 1.4472-.2832.1272-.4944.3072-.4872.6432.0072.348.252.4872.540003.5904 1.98.7104 3.9552 1.428 5.94 2.124.2976.1056.4008.2232.384.552-.1008 2.2032 1.9656 3.8448 4.104 3.2856.8664-.2256 1.5264-.732 2.0232-1.4856.1032.036.1968.0696.2904.1008 2.0112.72 4.0224 1.44 6.0336 2.1648.3024.108.5808.1536.8304-.1032.2592-.2688.1512-.5448.0168-.828-.4944-1.0248-.9864-2.0544-1.452-3.096zm-9.1032 2.0784c-.9576-.276-1.5912-1.1352-1.524-2.1144 1.2528.4464 2.4792.8856 3.7104 1.3248-.3504.672-1.356 1.0296-2.1864.7896z"/>
</svg>
