<svg width="24" height="24" fill="none" xmlns="http://www.w3.org/2000/svg">
  <path fill-rule="evenodd" clip-rule="evenodd" d="M19.3597 4.94078c-.3262-.32468-.7465-.53798-1.2012-.60943-.4546-.07144-.9201.00262-1.3301.21161-.0232-.0331-.2401-.27249-.3253-.3584-.406-.40507-.9562-.63256-1.5297-.63256s-1.1236.22749-1.5297.63256l-3.85147 3.8515c-.132.13204-.20615.3111-.20615.4978 0 .18671.07415.36577.20615.49781.13311.12997.31177.20273.49777.20273.1861 0 .3647-.07276.4978-.20273l3.8515-3.85149c.1417-.14159.3338-.22113.5341-.22113.2003 0 .3924.07954.5341.22113l.2577.25841-1.5667 1.56594c-.0683.06863-.1067.16154-.1067.25841 0 .09687.0384.18979.1067.25841l2.5813 2.57775c.0684.0683.1611.1066.2577.1066.0966 0 .1893-.0383.2577-.1066l2.0645-2.06445c.4099-.41046.6402-.96684.6402-1.54694s-.2303-1.13648-.6402-1.54693zM13.4241 8.2951c-.0685-.06832-.1613-.10669-.2581-.10669-.0967 0-.1895.03837-.258.10669l-5.79278 5.7941c-.10185.1017-.18265.2224-.23778.3553-.05513.1329-.08351.2754-.08351.4193 0 .1438.02838.2863.08351.4192.05513.1329.13593.2537.23778.3553l1.54905 1.549c.10163.1019.22236.1827.35526.2378.13291.0551.27538.0835.41926.0835.14389 0 .28636-.0284.41926-.0835.13291-.0551.25365-.1359.35525-.2378l5.7934-5.7934c.0684-.0685.1067-.1613.1067-.2581 0-.0967-.0383-.1895-.1067-.258l-2.5826-2.5827zm-7.60661 7.6723c.0569.0166.10869.0473.15056.0892l2.42285 2.4236c.04195.0419.07265.0937.08925.1506.0166.0569.01857.117.00572.1749-.01285.0579-.0401.1115-.07923.1561-.03913.0445-.08886.0784-.14459.0986L4.4697 20.4292c-.06315.0217-.13111.0255-.19627.0108-.06517-.0146-.12496-.0472-.17268-.0939-.04727-.0472-.08011-.1069-.0947-.1722-.01459-.0652-.01032-.1332.01232-.1961l1.36949-3.7923c.02018-.0557.05411-.1055.09863-.1446.04452-.0391.09821-.0664.15607-.0792.05786-.0129.11803-.0109.17493.0057z" fill="#5CDB95"/>
</svg>
