<svg xmlns="http://www.w3.org/2000/svg" fill="none" viewBox="0 0 16 16">
  <path fill="#303030" d="M14.025 8.46875h1.5062C15.7901 8.46875 16 8.25887 16 8V3.48125c0-.25888-.2099-.46875-.4688-.46875h-4.05V1.975C11.4812.885969 10.5953 0 9.50625 0c-1.089 0-1.975.886-1.975 1.975v1.0375h-4.05c-.25888 0-.46875.20987-.46875.46875v4.05H1.975c-1.089 0-1.975.886-1.975 1.975 0 1.08905.886 1.97495 1.975 1.97495h1.0375v4.05c0 .2589.20987.4688.46875.4688H8c.25887 0 .46875-.2099.46875-.4688V14.025c0-.5721.46544-1.0375 1.0375-1.0375.57205 0 1.03745.4654 1.03745 1.0375v1.5062c0 .2589.2099.4688.4688.4688h4.5187c.2589 0 .4688-.2099.4688-.4688v-4.5187c0-.2589-.2099-.4688-.4688-.4688H14.025c-.5721 0-1.0375-.4654-1.0375-1.03745 0-.57206.4654-1.0375 1.0375-1.0375zm0 3.01245h1.0375v3.5813h-3.5813V14.025c0-1.089-.8859-1.975-1.97495-1.975-1.089 0-1.975.886-1.975 1.975v1.0375H3.95v-4.05c0-.2589-.20987-.4688-.46875-.4688H1.975c-.57209 0-1.0375-.4654-1.0375-1.03745 0-.57206.46544-1.0375 1.0375-1.0375h1.50625c.25888 0 .46875-.20988.46875-.46875V3.95H8c.25887 0 .46875-.20987.46875-.46875V1.975c0-.57209.46544-1.0375 1.0375-1.0375.57205 0 1.03745.46544 1.03745 1.0375v1.50625c0 .25888.2099.46875.4688.46875h4.05v3.58125H14.025c-1.089 0-1.975.886-1.975 1.975 0 1.08905.886 1.97495 1.975 1.97495z"/>
</svg>
