<svg width="100" height="100" viewBox="0 0 100 100" fill="none" xmlns="http://www.w3.org/2000/svg">
<path d="M0.5 8C0.5 3.85786 3.85786 0.5 8 0.5H92C96.1421 0.5 99.5 3.85786 99.5 8V92C99.5 96.1421 96.1421 99.5 92 99.5H8C3.85786 99.5 0.5 96.1421 0.5 92V8Z" fill="#F5F5F5" stroke="#E0E0E0"/>
<path d="M60.0589 39.2985C57.511 39.2985 55.4382 41.3714 55.4382 43.9192C55.4382 46.467 57.511 48.5398 60.0589 48.5398C62.6066 48.5398 64.6795 46.467 64.6795 43.9192C64.6795 41.3712 62.6067 39.2985 60.0589 39.2985ZM60.0589 46.7467C58.4997 46.7467 57.2313 45.4783 57.2313 43.9192C57.2313 42.36 58.4997 41.0917 60.0589 41.0917C61.6179 41.0917 62.8864 42.36 62.8864 43.9192C62.8864 45.4781 61.618 46.7467 60.0589 46.7467Z" fill="#979797"/>
<path d="M60.0902 67.9993C60.0678 67.9446 60.04 67.8926 60.0077 67.8442C59.9755 67.7949 59.9378 67.7492 59.8966 67.7079C59.8553 67.6667 59.8096 67.629 59.7603 67.5968C59.7119 67.5645 59.6599 67.5367 59.6052 67.5143C59.5514 67.4919 59.4949 67.4739 59.4375 67.4632C59.3219 67.4399 59.2035 67.4399 59.0879 67.4632C59.0305 67.4739 58.974 67.4919 58.9202 67.5143C58.8655 67.5367 58.8135 67.5645 58.7651 67.5968C58.7158 67.629 58.6701 67.6667 58.6288 67.7079C58.5876 67.7492 58.5499 67.7949 58.5176 67.8442C58.4854 67.8926 58.4576 67.9446 58.4352 67.9993C58.4127 68.0531 58.3948 68.1096 58.3841 68.167C58.3724 68.2244 58.3661 68.2835 58.3661 68.3418C58.3661 68.4001 58.3724 68.4593 58.3841 68.5166C58.3948 68.574 58.4127 68.6305 58.4352 68.6843C58.4576 68.739 58.4854 68.791 58.5176 68.8394C58.5499 68.8887 58.5876 68.9344 58.6288 68.9757C58.6493 68.9962 58.671 69.0158 58.6936 69.0344C58.7165 69.0531 58.7403 69.0707 58.7651 69.0869C58.8135 69.1191 58.8655 69.1469 58.9202 69.1693C58.974 69.1917 59.0305 69.2097 59.0879 69.2204C59.1452 69.2321 59.2044 69.2384 59.2627 69.2384C59.321 69.2384 59.3801 69.2321 59.4375 69.2204C59.4949 69.2097 59.5514 69.1917 59.6052 69.1693C59.6599 69.1469 59.7119 69.1191 59.7603 69.0869C59.785 69.0706 59.8089 69.0531 59.8317 69.0344C59.8544 69.0158 59.876 68.9962 59.8966 68.9757C59.9378 68.9344 59.9755 68.8887 60.0077 68.8394C60.04 68.791 60.0678 68.739 60.0902 68.6843C60.1126 68.6305 60.1306 68.574 60.1422 68.5166C60.1539 68.4593 60.1593 68.4001 60.1593 68.3418C60.1593 68.2835 60.1539 68.2244 60.1422 68.167C60.1306 68.1095 60.1126 68.053 60.0902 67.9993Z" fill="#979797"/>
<path d="M45.9801 32.5193C45.9577 32.4655 45.9299 32.4135 45.8976 32.3642C45.8654 32.3158 45.8277 32.2692 45.7865 32.2279C45.7452 32.1867 45.6995 32.149 45.6502 32.1168C45.6018 32.0845 45.5498 32.0567 45.4951 32.0343C45.4413 32.0119 45.3848 31.9948 45.3274 31.9832C45.2118 31.9599 45.0934 31.9599 44.9778 31.9832C44.9204 31.9948 44.8639 32.0119 44.8092 32.0343C44.7554 32.0567 44.7034 32.0845 44.655 32.1168C44.6057 32.149 44.5599 32.1867 44.5187 32.2279C44.4775 32.2692 44.4398 32.3158 44.4066 32.3642C44.3744 32.4135 44.3475 32.4655 44.325 32.5193C44.3026 32.5731 44.2847 32.6296 44.2739 32.687C44.2623 32.7453 44.256 32.8035 44.256 32.8627C44.256 32.921 44.2623 32.9793 44.2739 33.0375C44.2847 33.0949 44.3026 33.1514 44.325 33.2052C44.3475 33.259 44.3744 33.311 44.4066 33.3603C44.4398 33.4087 44.4775 33.4553 44.5187 33.4966C44.5599 33.5378 44.6057 33.5755 44.655 33.6078C44.7034 33.64 44.7554 33.6678 44.8092 33.6903C44.8639 33.7127 44.9204 33.7297 44.9778 33.7414C45.0351 33.753 45.0943 33.7593 45.1526 33.7593C45.2109 33.7593 45.27 33.753 45.3274 33.7414C45.3848 33.7297 45.4413 33.7127 45.4951 33.6903C45.5498 33.6678 45.6018 33.64 45.6502 33.6078C45.6995 33.5755 45.7452 33.5378 45.7865 33.4966C45.8277 33.4553 45.8654 33.4087 45.8976 33.3603C45.9299 33.311 45.9577 33.259 45.9801 33.2052C46.0025 33.1514 46.0205 33.0949 46.0312 33.0375C46.0429 32.9793 46.0492 32.921 46.0492 32.8627C46.0492 32.8035 46.0429 32.7453 46.0312 32.687C46.0205 32.6296 46.0025 32.5731 45.9801 32.5193Z" fill="#979797"/>
<path d="M66.8951 31.9695C66.3575 29.6968 64.3129 28 61.8782 28H33.7479C29.4757 27.9999 26 31.4756 26 35.7478V63.8781C26 66.6719 28.234 68.9523 31.0093 69.0305C31.5469 71.3032 33.5914 73 36.0262 73H66.7482C69.5913 73 71.9044 70.6869 71.9044 67.8438V61.0785V37.1218C71.9044 34.3281 69.6704 32.0477 66.8951 31.9695ZM70.1112 67.844C70.1112 69.6984 68.6026 71.207 66.7482 71.207H36.0262C34.5908 71.207 33.3632 70.3028 32.8814 69.0344C32.7408 68.6641 32.6631 68.2631 32.6631 67.844V67.2412V63.0875L42.949 45.6471C43.2622 45.1161 43.8207 44.8061 44.4334 44.816C45.0498 44.8266 45.5937 45.156 45.8885 45.6974L50.3172 53.8295L56.7547 65.6501C56.9173 65.9488 57.2251 66.118 57.5428 66.118C57.6877 66.118 57.8347 66.0828 57.9709 66.0086C58.4057 65.7718 58.5663 65.2273 58.3295 64.7924L56.2405 60.9565C57.1577 60.9988 58.0598 60.7018 58.7782 60.1058L62.8102 56.7611C63.4568 56.2246 64.4116 56.2482 65.0309 56.816L65.2414 57.009L67.0346 58.6526L70.1112 61.473V67.844ZM70.1112 59.0404L67.0345 56.22L65.2413 54.8546C64.073 54.366 62.6839 54.536 61.6653 55.3809L57.6333 58.7256C57.1899 59.0936 56.6109 59.2422 56.0449 59.1335C55.479 59.0248 54.9964 58.6721 54.7208 58.1661L51.8919 52.9717L50.3124 50.0712V50.0711L47.4633 44.8396C46.8556 43.7239 45.7344 43.0447 44.464 43.023C43.1941 43.0031 42.0499 43.6417 41.4045 44.7361L32.663 59.5577V37.1218C32.663 35.2674 34.1717 33.7588 36.0261 33.7588H41.5662C42.0613 33.7588 42.4627 33.3574 42.4627 32.8622C42.4627 32.367 42.0613 31.9656 41.5662 31.9656H36.0261C33.183 31.9656 30.8699 34.2787 30.8699 37.1218V62.8428V67.2281C29.1491 67.0822 27.7931 65.636 27.7931 63.8781V35.7478C27.7931 32.4643 30.4645 29.793 33.7479 29.793H61.8782C63.3136 29.793 64.5412 30.6972 65.0229 31.9657H48.7387C48.2435 31.9657 47.8421 32.3671 47.8421 32.8623C47.8421 33.3575 48.2435 33.7588 48.7387 33.7588H65.2412L67.0344 33.7719C68.7553 33.9177 70.1112 35.3639 70.1112 37.1218V59.0404Z" fill="#979797"/>
</svg>
