<svg width="14" height="15" viewBox="0 0 14 15" fill="none" xmlns="http://www.w3.org/2000/svg">
<path d="M10.9359 9.85172C10.1701 9.85172 9.4874 10.212 9.04687 10.7715L4.63483 8.22426C4.74615 7.94762 4.80802 7.64595 4.80802 7.3299C4.80802 7.01389 4.74612 6.71222 4.63483 6.43554L9.04687 3.8883C9.48743 4.44777 10.1701 4.80808 10.9359 4.80808C12.2614 4.80808 13.3399 3.72962 13.3399 2.40406C13.3399 1.07846 12.2615 0 10.9359 0C9.61024 0 8.53183 1.07844 8.53183 2.404C8.53183 2.72004 8.59376 3.02177 8.70511 3.29847L4.29313 5.84572C3.85256 5.28618 3.1698 4.92585 2.40403 4.92585C1.07844 4.92585 0 6.00431 0 7.32987C0 8.65544 1.07844 9.7339 2.40403 9.7339C3.1698 9.7339 3.85256 9.37356 4.29313 8.81403L8.70511 11.3613C8.59376 11.638 8.53183 11.9397 8.53183 12.2558C8.53183 13.5814 9.61026 14.6598 10.9359 14.6598C12.2614 14.6598 13.3399 13.5813 13.3399 12.2558C13.3399 10.9302 12.2615 9.85172 10.9359 9.85172ZM10.9359 0.681678C11.8856 0.681678 12.6582 1.45432 12.6582 2.404C12.6582 3.3537 11.8856 4.12638 10.9359 4.12638C9.98615 4.12638 9.21348 3.3537 9.21348 2.404C9.21351 1.45429 9.98618 0.681678 10.9359 0.681678ZM2.40403 9.05225C1.45432 9.05225 0.681649 8.27958 0.681649 7.32987C0.681649 6.38017 1.45429 5.6075 2.40403 5.6075C3.35373 5.6075 4.1264 6.38017 4.1264 7.32987C4.1264 8.27958 3.35373 9.05225 2.40403 9.05225ZM10.9359 13.9781C9.98615 13.9781 9.21348 13.2054 9.21348 12.2557C9.21348 11.306 9.98612 10.5334 10.9359 10.5334C11.8856 10.5334 12.6582 11.306 12.6582 12.2557C12.6582 13.2055 11.8856 13.9781 10.9359 13.9781Z" fill="black"/>
<path d="M2.40404 6.31641C1.84525 6.31641 1.39062 6.771 1.39062 7.32982C1.39062 7.51802 1.54321 7.67065 1.73146 7.67065C1.91972 7.67065 2.0723 7.51802 2.0723 7.32982C2.0723 7.14689 2.22111 6.99808 2.40404 6.99808C2.59227 6.99808 2.74488 6.84544 2.74488 6.65724C2.74488 6.46902 2.59227 6.31641 2.40404 6.31641Z" fill="black"/>
</svg>
