<svg width="14" height="12" viewBox="0 0 14 12" fill="none" xmlns="http://www.w3.org/2000/svg">
<path d="M3.77611 11.07C4.19584 11.4897 4.87718 11.4897 5.29691 11.07L10.5033 5.86365C10.6528 5.71416 10.7677 5.53592 10.8425 5.34618C11.3657 5.4928 11.8746 5.57042 12.323 5.56754C13.4327 5.5618 13.8007 5.07595 13.9215 4.78559C14.0422 4.4981 14.1284 3.89438 13.3494 3.10092C13.3407 3.0923 13.3321 3.08368 13.3235 3.07505C12.8405 2.59208 12.139 2.14648 11.3427 1.81587C11.1961 1.7555 11.0495 1.70087 10.9057 1.64913V1.6405C10.8971 1.00229 10.3825 0.487687 9.7443 0.479063L6.62509 0.43594C6.21111 0.43019 5.81438 0.591182 5.52402 0.884416L0.314796 6.09077C-0.104932 6.5105 -0.104932 7.19183 0.314796 7.61156L3.77611 11.07ZM7.7894 2.29884C8.13726 1.95099 8.70073 1.95099 9.04859 2.29884C9.25558 2.50583 9.33895 2.79044 9.2987 3.0578C9.64081 3.29929 10.049 3.52353 10.486 3.70464C10.6413 3.76789 10.7907 3.82539 10.9345 3.87426L10.9172 2.62083C10.9431 2.63232 10.9661 2.64095 10.992 2.65245C11.6733 2.93706 12.2857 3.32229 12.6795 3.71614C12.6853 3.72189 12.691 3.72764 12.6968 3.73339C13.0705 4.11575 13.1107 4.36011 13.0791 4.43485C12.9814 4.66772 11.9321 4.87471 10.3394 4.21062C9.87367 4.01513 9.43669 3.77364 9.08309 3.51203C9.07159 3.5264 9.05721 3.54078 9.04571 3.55515C8.69785 3.90301 8.13439 3.90301 7.78653 3.55515C7.44155 3.21017 7.44155 2.6467 7.7894 2.29884Z" fill="#979797"/>
</svg>
