<svg xmlns="http://www.w3.org/2000/svg" viewBox="0 0 512 512">
  <path fill="#5cdb95" d="M512 276.1V336c0 26.5-21.5 48-48 48H133.3c-2.1 0-4.3-.2-6.2-.4l219.7-219.7c14.5-14.5 38.4-14.5 52.9 0L512 276.1z"/>
  <path fill="#54c685" d="M385.3 384h-252c-2.1 0-4.3-.2-6.2-.4-22.4-2.8-39.9-21.1-41.6-43.7l101.3-101.3c14.5-14.5 38.4-14.5 52.9 0L385.3 384z"/>
  <path fill="#e0e05a" d="M192 106.7c-23.5 0-42.7 19.1-42.7 42.7S168.5 192 192 192s42.7-19.1 42.7-42.7-19.2-42.6-42.7-42.6z"/>
  <path fill="#cdd0d2" d="M133.3 416c-34.2 0-64.5-21.9-75.6-54.4l-.7-2.5c-2.6-8.6-3.7-15.9-3.7-23.1V190.6L1.6 363.3c-6.7 25.4 8.5 51.8 34 58.8l329.9 88.3c4.1 1.1 8.2 1.6 12.3 1.6 21.2 0 40.7-14.1 46.1-34.9L443 416H133.3z"/>
</svg>
