<svg viewBox="0 0 29 28" fill="none" xmlns="http://www.w3.org/2000/svg">
<path d="M27.9728 10.882L25.8295 10.4161C25.6431 9.84549 25.4123 9.28894 25.1398 8.7528L26.3263 6.90719C26.5382 6.57742 26.4916 6.14448 26.2146 5.86747L22.8757 2.52856C22.5987 2.25156 22.1657 2.20496 21.8359 2.41686L19.9903 3.60338C19.4542 3.33084 18.8976 3.10001 18.327 2.91364L17.8611 0.770382C17.7779 0.38743 17.4388 0.114258 17.0469 0.114258H12.3251C11.9332 0.114258 11.5941 0.38743 11.5109 0.770382L11.045 2.91364C10.4744 3.10001 9.91784 3.33084 9.38171 3.60338L7.53609 2.41686C7.20633 2.20496 6.77338 2.25156 6.49638 2.52856L3.15746 5.86747C2.88046 6.14448 2.83387 6.57742 3.04577 6.90719L4.23228 8.7528C3.95975 9.28894 3.72891 9.84549 3.54254 10.4161L1.39929 10.882C1.01634 10.9654 0.743164 11.3043 0.743164 11.6962V16.418C0.743164 16.8099 1.01634 17.1488 1.39929 17.2322L3.54254 17.6981C3.72891 18.2687 3.95975 18.8253 4.23228 19.3614L3.04577 21.207C2.83387 21.5368 2.88046 21.9698 3.15746 22.2468L6.49638 25.5857C6.77338 25.8627 7.20633 25.9093 7.53609 25.6974L9.38171 24.5109C9.91784 24.7834 10.4744 25.0142 11.045 25.2006L11.5109 27.3438C11.5941 27.7268 11.9332 28 12.3251 28H17.0469C17.4388 28 17.7779 27.7268 17.8611 27.3438L18.327 25.2006C18.8976 25.0142 19.4542 24.7834 19.9903 24.5109L21.8359 25.6974C22.1657 25.9093 22.5987 25.8629 22.8757 25.5857L26.2146 22.2468C26.4916 21.9698 26.5382 21.5368 26.3263 21.207L25.1398 19.3614C25.4123 18.8253 25.6431 18.2687 25.8295 17.6981L27.9728 17.2322C28.3557 17.1488 28.6289 16.8099 28.6289 16.418V11.6962C28.6289 11.3043 28.3557 10.9654 27.9728 10.882ZM19.6855 14.0571C19.6855 16.8137 17.4426 19.0566 14.686 19.0566C11.9294 19.0566 9.68658 16.8137 9.68658 14.0571C9.68658 11.3005 11.9294 9.05768 14.686 9.05768C17.4426 9.05768 19.6855 11.3005 19.6855 14.0571Z" fill="#BDBDBD"/>
</svg>
